<svg xmlns="http://www.w3.org/2000/svg" viewBox="0 0 120 120" stroke-linecap="round" stroke-linejoin="round">
<defs>
<rect id="ca-b" x="14" y="42" width="92" height="54" rx="10"/>
<clipPath id="ca-c"><use href="#ca-b"/></clipPath>
</defs>
<path d="M60 9C88 8 111 30 110 59C111 88 88 111 59 110C30 110 9 89 10 60C9 31 32 9 60 9Z" fill="#D5EEE2"/>
<ellipse cx="60" cy="95" rx="42" ry="4.5" fill="#3A2A1F" opacity=".12"/>
<g transform="translate(60 62) scale(.9) translate(-60 -65)">
<g stroke="#3A2A1F" stroke-width="2.2"><rect x="26" y="36" width="12" height="9" rx="3" fill="#E6E0D6"/><rect x="62" y="36.5" width="8" height="8" rx="2.5" fill="#D9472B"/><rect x="74" y="33.5" width="17" height="11" rx="3" fill="#E6E0D6"/></g>
<path d="M76.5 38.5H88.5" stroke="#B8AFA3" stroke-width="1.4" stroke-dasharray="1.2 1.6"/>
<g fill="#E6E0D6" stroke="#3A2A1F" stroke-width="1.8"><rect x="10.5" y="48" width="5" height="7" rx="1.5"/><rect x="104.5" y="48" width="5" height="7" rx="1.5"/></g>
<use href="#ca-b" fill="#ECE6DC"/>
<g clip-path="url(#ca-c)"><rect x="90" y="40" width="20" height="18" fill="#D6CEC1"/><rect x="10" y="57" width="100" height="42" fill="#5B4636"/><rect x="88" y="57" width="22" height="42" fill="#4A372A"/></g>
<use href="#ca-b" fill="none" stroke="#3A2A1F" stroke-width="2.5"/>
<path d="M15 57H105" stroke="#3A2A1F" stroke-width="1.8"/>
<rect x="22" y="46" width="15" height="7" rx="2" fill="#355C93" stroke="#3A2A1F" stroke-width="1.8"/>
<path d="M25 48.5H29" stroke="#FFF4E3" stroke-width="1.2" opacity=".8"/>
<circle cx="60" cy="72" r="22" fill="#D6CEC1"/>
<circle cx="58.8" cy="70.8" r="20.6" fill="#ECE6DC"/>
<circle cx="60" cy="72" r="22" fill="none" stroke="#3A2A1F" stroke-width="2.5"/>
<circle cx="60" cy="72" r="18.8" fill="none" stroke="#B8AFA3" stroke-width="2" stroke-dasharray="1.4 1.6"/>
<circle cx="60" cy="72" r="15.5" fill="#3A2A1F"/>
<circle cx="60" cy="72" r="11" fill="#4A78B5"/>
<circle cx="60" cy="72" r="6.5" fill="#355C93"/>
<g fill="none"><path d="M52.5 68A8.5 8.5 0 0 1 58 63.5" stroke="#FFF4E3" stroke-width="2.2" opacity=".9"/><path d="M67 69A8 8 0 0 1 68 75" stroke="#9C8CD0" stroke-width="1.6"/></g>
<circle cx="64.5" cy="77" r="1.4" fill="#FFF4E3" opacity=".7"/>
</g>
<g fill="#F2BD3D"><path d="M0-6Q1-1 6 0Q1 1 0 6Q-1 1-6 0Q-1-1 0-6Z" transform="translate(102 27) scale(.8)"/><path d="M0-6Q1-1 6 0Q1 1 0 6Q-1 1-6 0Q-1-1 0-6Z" transform="translate(17 29) scale(.55)"/></g>
</svg>
