<svg xmlns="http://www.w3.org/2000/svg" viewBox="0 0 120 120" stroke-linecap="round" stroke-linejoin="round">
<defs>
<path id="gu-b" d="M60 44C70 44 76 50 76 58C76 64 72 68 74 72C80 74 83 81 83 88C83 102 72 110 60 110C48 110 37 102 37 88C37 81 40 74 46 72C48 68 44 64 44 58C44 50 50 44 60 44Z"/>
<clipPath id="gu-c"><use href="#gu-b"/></clipPath>
</defs>
<path d="M60 9C88 8 111 30 110 59C111 88 88 111 59 110C30 110 9 89 10 60C9 31 32 9 60 9Z" fill="#E6E0F5"/>
<ellipse cx="50" cy="102" rx="32" ry="4" fill="#3A2A1F" opacity=".12"/>
<g transform="translate(60 60) rotate(36) scale(.88) translate(-60 -57.5)">
<g fill="#FFF4E3" stroke="#3A2A1F" stroke-width="1.6"><circle cx="50.5" cy="10" r="2.2"/><circle cx="50.5" cy="16.5" r="2.2"/><circle cx="69.5" cy="10" r="2.2"/><circle cx="69.5" cy="16.5" r="2.2"/></g>
<path d="M54.5 21L53 9Q53 5 57 5H63Q67 5 67 9L65.5 21Z" fill="#5B4636" stroke="#3A2A1F" stroke-width="2.2"/>
<use href="#gu-b" fill="#E2B878"/>
<g clip-path="url(#gu-c)"><use href="#gu-b" fill="none" stroke="#B9874B" stroke-width="7"/><path d="M68 40Q88 80 64 114H100V40Z" fill="#B9874B" opacity=".55"/></g>
<use href="#gu-b" fill="none" stroke="#3A2A1F" stroke-width="2.5"/>
<path d="M43 85Q44 78 50 75.5" fill="none" stroke="#FFF4E3" stroke-width="2.2" opacity=".75"/>
<circle cx="60" cy="72" r="10" fill="none" stroke="#B97F09" stroke-width="1.6"/>
<circle cx="60" cy="72" r="7.5" fill="#3A2A1F"/>
<path d="M66 77Q75 78 74 88Q67 86 65 80Z" fill="#D9472B" stroke="#3A2A1F" stroke-width="1.6"/>
<rect x="55.5" y="20" width="9" height="42" rx="1.5" fill="#8F6232"/>
<path d="M56.5 27H63.5M56.5 33H63.5M56.5 39H63.5M56.5 45H63.5M56.5 51H63.5M56.5 57H63.5" stroke="#E2B878" stroke-width="1"/>
<rect x="55.5" y="20" width="9" height="42" rx="1.5" fill="none" stroke="#3A2A1F" stroke-width="2.2"/>
<rect x="50" y="93" width="20" height="5" rx="2.5" fill="#5B4636" stroke="#3A2A1F" stroke-width="1.8"/>
<path d="M57.6 21V95M59.2 21V95M60.8 21V95M62.4 21V95" stroke="#FFF4E3" stroke-width=".6" opacity=".9"/>
<path d="M55.5 21H64.5" stroke="#FFF4E3" stroke-width="2"/>
</g>
<g fill="#F2BD3D"><path d="M0-6Q1-1 6 0Q1 1 0 6Q-1 1-6 0Q-1-1 0-6Z" transform="translate(26 30) scale(.8)"/><path d="M0-6Q1-1 6 0Q1 1 0 6Q-1 1-6 0Q-1-1 0-6Z" transform="translate(98 80) scale(.6)"/></g>
</svg>
