<svg xmlns="http://www.w3.org/2000/svg" viewBox="0 0 120 120" stroke-linecap="round" stroke-linejoin="round">
<defs><clipPath id="wa-d"><circle cx="60" cy="60" r="19.5"/></clipPath></defs>
<path d="M60 9C88 8 111 30 110 59C111 88 88 111 59 110C30 110 9 89 10 60C9 31 32 9 60 9Z" fill="#DBE6F5"/>
<ellipse cx="62" cy="104" rx="24" ry="3.5" fill="#3A2A1F" opacity=".12"/>
<g transform="translate(60 60) rotate(-14) scale(.92) translate(-60 -60)">
<g fill="#8F6232" stroke="#3A2A1F" stroke-width="2.5"><path d="M46 38L48 16Q48.5 12 52.5 12H67.5Q71.5 12 72 16L74 38Z"/><path d="M46 82L48 104Q48.5 108 52.5 108H67.5Q71.5 108 72 104L74 82Z"/></g>
<path d="M50.5 16L49.5 34M69.5 16L70.5 34M49.5 86L50.5 104M70.5 86L69.5 104" stroke="#E2B878" stroke-width="1" stroke-dasharray="2 2"/>
<g fill="#3A2A1F"><circle cx="60" cy="93" r="1.4"/><circle cx="60" cy="99" r="1.4"/></g>
<g fill="#E3A21A" stroke="#3A2A1F" stroke-width="2.2"><path d="M45 40L47.5 31H72.5L75 40Z"/><path d="M45 80L47.5 89H72.5L75 80Z"/><rect x="84" y="55" width="7" height="10" rx="2"/></g>
<circle cx="60" cy="60" r="27" fill="#E3A21A"/>
<circle cx="58.6" cy="58.6" r="25.4" fill="#F2BD3D"/>
<circle cx="60" cy="60" r="27" fill="none" stroke="#3A2A1F" stroke-width="2.5"/>
<circle cx="60" cy="60" r="22" fill="#E3A21A" stroke="#3A2A1F" stroke-width="1.5"/>
<circle cx="60" cy="60" r="19.5" fill="#2E8B66"/>
<path d="M30 30H90L30 90Z" fill="#4FB08A" opacity=".35" clip-path="url(#wa-d)"/>
<g fill="#FFF4E3">
<rect x="58.7" y="42.5" width="2.6" height="5.5" rx="1"/><rect x="58.7" y="42.5" width="2.6" height="5.5" rx="1" transform="rotate(90 60 60)"/><rect x="58.7" y="42.5" width="2.6" height="5.5" rx="1" transform="rotate(180 60 60)"/><rect x="58.7" y="42.5" width="2.6" height="5.5" rx="1" transform="rotate(270 60 60)"/>
<circle cx="60" cy="44" r="1.1" transform="rotate(30 60 60)"/><circle cx="60" cy="44" r="1.1" transform="rotate(60 60 60)"/><circle cx="60" cy="44" r="1.1" transform="rotate(120 60 60)"/><circle cx="60" cy="44" r="1.1" transform="rotate(150 60 60)"/><circle cx="60" cy="44" r="1.1" transform="rotate(210 60 60)"/><circle cx="60" cy="44" r="1.1" transform="rotate(240 60 60)"/><circle cx="60" cy="44" r="1.1" transform="rotate(300 60 60)"/><circle cx="60" cy="44" r="1.1" transform="rotate(330 60 60)"/>
</g>
<g fill="none"><path d="M60 60L50.5 54.5M60 60L73 52.5" stroke="#3A2A1F" stroke-width="4.2"/><path d="M60 60L50.5 54.5M60 60L73 52.5" stroke="#FFF4E3" stroke-width="1.8"/><path d="M60 64L60 43.5" stroke="#EE6A4D" stroke-width="1"/></g>
<circle cx="60" cy="60" r="2.2" fill="#F2BD3D" stroke="#3A2A1F" stroke-width="1.2"/>
<path d="M39.5 49A23 23 0 0 1 48.5 39" fill="none" stroke="#FFF4E3" stroke-width="2" opacity=".85"/>
</g>
<g fill="#F2BD3D"><path d="M0-6Q1-1 6 0Q1 1 0 6Q-1 1-6 0Q-1-1 0-6Z" transform="translate(100 32) scale(.8)"/><path d="M0-6Q1-1 6 0Q1 1 0 6Q-1 1-6 0Q-1-1 0-6Z" transform="translate(22 82) scale(.6)"/></g>
</svg>
